<svg width="398" height="502" viewBox="0 0 398 502" fill="none" xmlns="http://www.w3.org/2000/svg">
<g filter="url(#filter0_d_5_2858)">
<rect x="130.05" y="0.825989" width="263.95" height="351.934" rx="19.0234" fill="white"/>
<rect x="151.451" y="74.5417" width="64.2041" height="7.13379" rx="2.37793" fill="#F6F7F8"/>
<rect x="151.451" y="141.124" width="64.2041" height="7.13379" rx="2.37793" fill="#F6F7F8"/>
<rect x="151.451" y="205.328" width="64.2041" height="7.13379" rx="2.37793" fill="#F6F7F8"/>
<rect x="151.451" y="271.91" width="64.2041" height="7.13379" rx="2.37793" fill="#F6F7F8"/>
<rect x="151.451" y="98.3213" width="130.786" height="16.6455" rx="2.37793" fill="#C2CFE0"/>
<rect x="151.451" y="162.525" width="171.211" height="16.6455" rx="2.37793" fill="#C2CFE0"/>
<rect x="151.451" y="231.485" width="92.7393" height="16.6455" rx="2.37793" fill="#C2CFE0"/>
<rect x="151.451" y="295.689" width="52.3145" height="16.6455" rx="2.37793" fill="#C2CFE0"/>
<path d="M154.595 27.4355C155.086 27.4355 155.545 27.333 155.973 27.128C156.4 26.9229 156.779 26.6288 157.109 26.2455L158.379 27.5024C157.934 28.0283 157.363 28.4472 156.668 28.7592C155.982 29.0712 155.273 29.2272 154.542 29.2272C153.838 29.2272 153.178 29.1024 152.563 28.8528C151.957 28.6032 151.431 28.2645 150.985 27.8366C150.54 27.4088 150.187 26.9007 149.929 26.3123C149.679 25.724 149.555 25.0911 149.555 24.4137C149.555 23.7362 149.684 23.1033 149.942 22.515C150.201 21.9177 150.553 21.4052 150.999 20.9773C151.444 20.5494 151.97 20.2107 152.576 19.9611C153.191 19.7115 153.847 19.5867 154.542 19.5867C155.291 19.5867 156.017 19.7472 156.721 20.0681C157.426 20.3801 157.996 20.8035 158.433 21.3383L157.123 22.6353C156.793 22.2253 156.405 21.9133 155.959 21.6993C155.514 21.4765 155.041 21.3651 154.542 21.3651C154.123 21.3651 153.726 21.4453 153.352 21.6058C152.986 21.7573 152.67 21.9712 152.403 22.2476C152.135 22.515 151.926 22.8359 151.774 23.2103C151.623 23.5757 151.547 23.9769 151.547 24.4137C151.547 24.8415 151.623 25.2427 151.774 25.617C151.935 25.9825 152.149 26.299 152.416 26.5664C152.692 26.8338 153.013 27.0477 153.379 27.2082C153.753 27.3597 154.159 27.4355 154.595 27.4355ZM161.599 29.2138C160.85 29.2138 160.239 29.0177 159.767 28.6255C159.295 28.2244 159.058 27.7074 159.058 27.0745C159.058 26.4149 159.312 25.8978 159.82 25.5235C160.329 25.1491 161.028 24.9619 161.92 24.9619C162.205 24.9619 162.49 24.9842 162.775 25.0287C163.061 25.0733 163.341 25.1402 163.618 25.2293V24.7346C163.618 24.3334 163.493 24.0304 163.243 23.8253C162.994 23.6203 162.628 23.5178 162.147 23.5178C161.853 23.5178 161.532 23.5668 161.184 23.6649C160.846 23.754 160.458 23.8966 160.021 24.0928L159.352 22.7423C159.896 22.4927 160.422 22.3055 160.93 22.1807C161.447 22.0559 161.955 21.9935 162.455 21.9935C163.39 21.9935 164.117 22.2208 164.634 22.6754C165.16 23.1211 165.423 23.754 165.423 24.5741V29.0935H163.618V28.6122C163.324 28.8172 163.012 28.9687 162.682 29.0668C162.361 29.1648 162 29.2138 161.599 29.2138ZM160.81 27.0344C160.81 27.3018 160.926 27.5157 161.158 27.6762C161.389 27.8277 161.697 27.9035 162.08 27.9035C162.383 27.9035 162.66 27.8678 162.909 27.7965C163.168 27.7163 163.404 27.6049 163.618 27.4622V26.4193C163.395 26.3302 163.159 26.2678 162.909 26.2321C162.668 26.1875 162.414 26.1653 162.147 26.1653C161.728 26.1653 161.398 26.2455 161.158 26.4059C160.926 26.5575 160.81 26.767 160.81 27.0344ZM166.221 28.2645L167.13 27.0477C167.54 27.3152 167.928 27.5157 168.293 27.6494C168.659 27.7742 169.024 27.8366 169.39 27.8366C169.8 27.8366 170.125 27.7698 170.366 27.6361C170.616 27.5024 170.74 27.3241 170.74 27.1012C170.74 26.9229 170.669 26.7803 170.526 26.6734C170.393 26.5664 170.174 26.4906 169.871 26.4461L168.534 26.2455C167.848 26.1385 167.322 25.9157 166.956 25.5769C166.6 25.2382 166.422 24.788 166.422 24.2265C166.422 23.5579 166.684 23.0231 167.21 22.6219C167.736 22.2208 168.441 22.0203 169.323 22.0203C169.831 22.0203 170.326 22.096 170.807 22.2476C171.289 22.3902 171.748 22.6041 172.184 22.8894L171.302 24.066C170.919 23.8432 170.553 23.6783 170.206 23.5713C169.858 23.4554 169.506 23.3975 169.149 23.3975C168.819 23.3975 168.552 23.4599 168.347 23.5847C168.151 23.7095 168.053 23.8744 168.053 24.0794C168.053 24.2666 168.124 24.4137 168.267 24.5206C168.418 24.6187 168.663 24.69 169.002 24.7346L170.339 24.9351C171.017 25.0332 171.538 25.256 171.904 25.6037C172.278 25.9513 172.465 26.3926 172.465 26.9274C172.465 27.2572 172.385 27.5648 172.225 27.85C172.073 28.1263 171.864 28.367 171.596 28.572C171.329 28.7771 171.008 28.9375 170.633 29.0534C170.259 29.1693 169.853 29.2272 169.417 29.2272C168.784 29.2272 168.191 29.147 167.638 28.9865C167.086 28.8172 166.613 28.5765 166.221 28.2645ZM173.122 25.617C173.122 25.109 173.215 24.6365 173.402 24.1997C173.599 23.754 173.861 23.3707 174.191 23.0498C174.53 22.72 174.927 22.4615 175.381 22.2743C175.836 22.0871 176.322 21.9935 176.839 21.9935C177.356 21.9935 177.842 22.0871 178.296 22.2743C178.751 22.4615 179.143 22.72 179.473 23.0498C179.812 23.3707 180.075 23.754 180.262 24.1997C180.458 24.6365 180.556 25.109 180.556 25.617C180.556 26.1251 180.458 26.602 180.262 27.0477C180.075 27.4845 179.812 27.8634 179.473 28.1843C179.143 28.5052 178.751 28.7592 178.296 28.9464C177.842 29.1336 177.356 29.2272 176.839 29.2272C176.322 29.2272 175.836 29.1336 175.381 28.9464C174.927 28.7592 174.53 28.5052 174.191 28.1843C173.861 27.8634 173.599 27.4845 173.402 27.0477C173.215 26.602 173.122 26.1251 173.122 25.617ZM176.839 27.6361C177.374 27.6361 177.828 27.44 178.203 27.0477C178.577 26.6555 178.764 26.1786 178.764 25.617C178.764 25.0466 178.577 24.5652 178.203 24.173C177.828 23.7808 177.374 23.5847 176.839 23.5847C176.304 23.5847 175.849 23.7808 175.475 24.173C175.101 24.5652 174.913 25.0466 174.913 25.617C174.913 26.1786 175.101 26.6555 175.475 27.0477C175.849 27.44 176.304 27.6361 176.839 27.6361ZM181.094 28.2645L182.003 27.0477C182.413 27.3152 182.801 27.5157 183.166 27.6494C183.532 27.7742 183.897 27.8366 184.262 27.8366C184.673 27.8366 184.998 27.7698 185.239 27.6361C185.488 27.5024 185.613 27.3241 185.613 27.1012C185.613 26.9229 185.542 26.7803 185.399 26.6734C185.265 26.5664 185.047 26.4906 184.744 26.4461L183.407 26.2455C182.72 26.1385 182.194 25.9157 181.829 25.5769C181.472 25.2382 181.294 24.788 181.294 24.2265C181.294 23.5579 181.557 23.0231 182.083 22.6219C182.609 22.2208 183.313 22.0203 184.196 22.0203C184.704 22.0203 185.198 22.096 185.68 22.2476C186.161 22.3902 186.62 22.6041 187.057 22.8894L186.175 24.066C185.791 23.8432 185.426 23.6783 185.078 23.5713C184.73 23.4554 184.378 23.3975 184.022 23.3975C183.692 23.3975 183.425 23.4599 183.22 23.5847C183.023 23.7095 182.925 23.8744 182.925 24.0794C182.925 24.2666 182.997 24.4137 183.139 24.5206C183.291 24.6187 183.536 24.69 183.875 24.7346L185.212 24.9351C185.889 25.0332 186.411 25.256 186.776 25.6037C187.151 25.9513 187.338 26.3926 187.338 26.9274C187.338 27.2572 187.258 27.5648 187.097 27.85C186.946 28.1263 186.736 28.367 186.469 28.572C186.201 28.7771 185.88 28.9375 185.506 29.0534C185.132 29.1693 184.726 29.2272 184.289 29.2272C183.656 29.2272 183.064 29.147 182.511 28.9865C181.958 28.8172 181.486 28.5765 181.094 28.2645Z" fill="#41475E" fill-opacity="0.71"/>
<path d="M351.796 109.943V103.285H355.049C355.386 103.285 355.693 103.336 355.972 103.437C356.257 103.539 356.502 103.681 356.704 103.865C356.907 104.043 357.066 104.258 357.18 104.512C357.294 104.766 357.351 105.045 357.351 105.349C357.351 105.768 357.231 106.142 356.99 106.472C356.755 106.801 356.441 107.045 356.048 107.204L357.522 109.943H355.982L354.678 107.394H353.176V109.943H351.796ZM354.926 104.474H353.176V106.262H354.926C355.237 106.262 355.484 106.18 355.668 106.015C355.858 105.85 355.953 105.634 355.953 105.368C355.953 105.102 355.858 104.886 355.668 104.721C355.484 104.556 355.237 104.474 354.926 104.474ZM360.107 110.657V109.763C359.644 109.725 359.206 109.617 358.794 109.439C358.382 109.262 358.021 109.027 357.71 108.735L358.385 107.813C358.626 108.047 358.896 108.241 359.194 108.393C359.492 108.539 359.796 108.637 360.107 108.688V107.147L359.584 107.042C358.969 106.928 358.525 106.738 358.252 106.472C357.986 106.205 357.853 105.825 357.853 105.33C357.853 104.759 358.052 104.306 358.452 103.97C358.858 103.634 359.409 103.453 360.107 103.428V102.724H360.735V103.456C361.115 103.494 361.496 103.58 361.876 103.713C362.263 103.84 362.618 104.005 362.941 104.208L362.39 105.206C362.098 105.029 361.813 104.886 361.534 104.778C361.255 104.671 360.988 104.595 360.735 104.55V106.063L361.239 106.148C361.898 106.275 362.377 106.472 362.675 106.738C362.973 106.998 363.122 107.362 363.122 107.832C363.122 108.396 362.907 108.853 362.475 109.201C362.051 109.55 361.47 109.74 360.735 109.772V110.657H360.107ZM360.05 105.977L360.107 105.986V104.503C359.79 104.509 359.536 104.579 359.346 104.712C359.156 104.845 359.061 105.016 359.061 105.225C359.061 105.46 359.127 105.628 359.26 105.73C359.394 105.831 359.657 105.913 360.05 105.977ZM360.773 107.213L360.735 107.204V108.726C361.077 108.7 361.35 108.618 361.553 108.478C361.762 108.339 361.867 108.161 361.867 107.946C361.867 107.724 361.794 107.565 361.648 107.47C361.502 107.369 361.21 107.283 360.773 107.213ZM366.171 103.285V109.943H364.868V104.607L363.565 105.14V104.008L365.344 103.285H366.171ZM369.687 110.048C369.301 110.048 368.942 110 368.612 109.905C368.289 109.804 368.01 109.667 367.775 109.496C367.541 109.325 367.357 109.119 367.224 108.878C367.097 108.637 367.034 108.371 367.034 108.079C367.034 107.737 367.138 107.426 367.347 107.147C367.563 106.868 367.842 106.659 368.184 106.519C367.905 106.361 367.68 106.154 367.509 105.901C367.338 105.647 367.252 105.365 367.252 105.054C367.252 104.788 367.313 104.541 367.433 104.312C367.56 104.084 367.731 103.888 367.947 103.723C368.162 103.551 368.419 103.418 368.717 103.323C369.022 103.228 369.345 103.18 369.687 103.18C370.03 103.18 370.35 103.228 370.648 103.323C370.952 103.418 371.212 103.551 371.428 103.723C371.65 103.888 371.821 104.084 371.942 104.312C372.068 104.541 372.132 104.788 372.132 105.054C372.132 105.365 372.046 105.65 371.875 105.91C371.704 106.164 371.479 106.367 371.2 106.519C371.542 106.659 371.818 106.868 372.027 107.147C372.243 107.426 372.351 107.737 372.351 108.079C372.351 108.371 372.284 108.637 372.151 108.878C372.024 109.119 371.843 109.325 371.609 109.496C371.374 109.667 371.092 109.804 370.762 109.905C370.439 110 370.08 110.048 369.687 110.048ZM369.687 106.034C370.017 106.034 370.293 105.948 370.515 105.777C370.743 105.606 370.857 105.394 370.857 105.14C370.857 104.886 370.746 104.674 370.524 104.503C370.302 104.325 370.023 104.236 369.687 104.236C369.358 104.236 369.082 104.325 368.86 104.503C368.638 104.674 368.527 104.886 368.527 105.14C368.527 105.394 368.638 105.606 368.86 105.777C369.088 105.948 369.364 106.034 369.687 106.034ZM369.687 108.983C370.08 108.983 370.404 108.891 370.658 108.707C370.918 108.523 371.047 108.288 371.047 108.003C371.047 107.724 370.918 107.492 370.658 107.309C370.404 107.118 370.08 107.023 369.687 107.023C369.301 107.023 368.977 107.118 368.717 107.309C368.463 107.492 368.337 107.724 368.337 108.003C368.337 108.288 368.463 108.523 368.717 108.707C368.977 108.891 369.301 108.983 369.687 108.983ZM373.016 109.943V109.03L375.641 106.681C375.939 106.408 376.151 106.17 376.278 105.967C376.405 105.758 376.469 105.543 376.469 105.321C376.469 105.029 376.354 104.788 376.126 104.598C375.898 104.407 375.612 104.312 375.27 104.312C374.953 104.312 374.655 104.376 374.376 104.503C374.103 104.629 373.805 104.839 373.482 105.13L372.749 104.255C373.136 103.907 373.545 103.643 373.976 103.466C374.408 103.288 374.852 103.199 375.308 103.199C375.663 103.199 375.99 103.25 376.288 103.352C376.592 103.447 376.849 103.583 377.058 103.761C377.274 103.938 377.439 104.154 377.553 104.407C377.673 104.661 377.734 104.937 377.734 105.235C377.734 105.615 377.638 105.967 377.448 106.291C377.258 106.614 376.928 106.985 376.459 107.404L374.832 108.849H377.819V109.943H373.016Z" fill="#41475E" fill-opacity="0.71"/>
<path d="M351.796 174.147V167.489H355.049C355.386 167.489 355.693 167.54 355.972 167.641C356.257 167.743 356.502 167.885 356.704 168.069C356.907 168.247 357.066 168.462 357.18 168.716C357.294 168.97 357.351 169.249 357.351 169.553C357.351 169.972 357.231 170.346 356.99 170.675C356.755 171.005 356.441 171.249 356.048 171.408L357.522 174.147H355.982L354.678 171.598H353.176V174.147H351.796ZM354.926 168.678H353.176V170.466H354.926C355.237 170.466 355.484 170.384 355.668 170.219C355.858 170.054 355.953 169.838 355.953 169.572C355.953 169.306 355.858 169.09 355.668 168.925C355.484 168.76 355.237 168.678 354.926 168.678ZM360.107 174.861V173.967C359.644 173.929 359.206 173.821 358.794 173.643C358.382 173.466 358.021 173.231 357.71 172.939L358.385 172.017C358.626 172.251 358.896 172.445 359.194 172.597C359.492 172.743 359.796 172.841 360.107 172.892V171.351L359.584 171.246C358.969 171.132 358.525 170.942 358.252 170.675C357.986 170.409 357.853 170.029 357.853 169.534C357.853 168.963 358.052 168.51 358.452 168.174C358.858 167.838 359.409 167.657 360.107 167.632V166.928H360.735V167.66C361.115 167.698 361.496 167.784 361.876 167.917C362.263 168.044 362.618 168.209 362.941 168.412L362.39 169.41C362.098 169.233 361.813 169.09 361.534 168.982C361.255 168.875 360.988 168.799 360.735 168.754V170.266L361.239 170.352C361.898 170.479 362.377 170.675 362.675 170.942C362.973 171.202 363.122 171.566 363.122 172.036C363.122 172.6 362.907 173.057 362.475 173.405C362.051 173.754 361.47 173.944 360.735 173.976V174.861H360.107ZM360.05 170.181L360.107 170.19V168.707C359.79 168.713 359.536 168.783 359.346 168.916C359.156 169.049 359.061 169.22 359.061 169.429C359.061 169.664 359.127 169.832 359.26 169.934C359.394 170.035 359.657 170.117 360.05 170.181ZM360.773 171.417L360.735 171.408V172.93C361.077 172.904 361.35 172.822 361.553 172.682C361.762 172.543 361.867 172.365 361.867 172.15C361.867 171.928 361.794 171.769 361.648 171.674C361.502 171.573 361.21 171.487 360.773 171.417ZM366.171 167.489V174.147H364.868V168.811L363.565 169.344V168.212L365.344 167.489H366.171ZM369.687 174.252C369.301 174.252 368.942 174.204 368.612 174.109C368.289 174.008 368.01 173.871 367.775 173.7C367.541 173.529 367.357 173.323 367.224 173.082C367.097 172.841 367.034 172.575 367.034 172.283C367.034 171.941 367.138 171.63 367.347 171.351C367.563 171.072 367.842 170.863 368.184 170.723C367.905 170.565 367.68 170.358 367.509 170.105C367.338 169.851 367.252 169.569 367.252 169.258C367.252 168.992 367.313 168.745 367.433 168.516C367.56 168.288 367.731 168.091 367.947 167.927C368.162 167.755 368.419 167.622 368.717 167.527C369.022 167.432 369.345 167.384 369.687 167.384C370.03 167.384 370.35 167.432 370.648 167.527C370.952 167.622 371.212 167.755 371.428 167.927C371.65 168.091 371.821 168.288 371.942 168.516C372.068 168.745 372.132 168.992 372.132 169.258C372.132 169.569 372.046 169.854 371.875 170.114C371.704 170.368 371.479 170.571 371.2 170.723C371.542 170.863 371.818 171.072 372.027 171.351C372.243 171.63 372.351 171.941 372.351 172.283C372.351 172.575 372.284 172.841 372.151 173.082C372.024 173.323 371.843 173.529 371.609 173.7C371.374 173.871 371.092 174.008 370.762 174.109C370.439 174.204 370.08 174.252 369.687 174.252ZM369.687 170.238C370.017 170.238 370.293 170.152 370.515 169.981C370.743 169.81 370.857 169.598 370.857 169.344C370.857 169.09 370.746 168.878 370.524 168.707C370.302 168.529 370.023 168.44 369.687 168.44C369.358 168.44 369.082 168.529 368.86 168.707C368.638 168.878 368.527 169.09 368.527 169.344C368.527 169.598 368.638 169.81 368.86 169.981C369.088 170.152 369.364 170.238 369.687 170.238ZM369.687 173.187C370.08 173.187 370.404 173.095 370.658 172.911C370.918 172.727 371.047 172.492 371.047 172.207C371.047 171.928 370.918 171.696 370.658 171.513C370.404 171.322 370.08 171.227 369.687 171.227C369.301 171.227 368.977 171.322 368.717 171.513C368.463 171.696 368.337 171.928 368.337 172.207C368.337 172.492 368.463 172.727 368.717 172.911C368.977 173.095 369.301 173.187 369.687 173.187ZM373.016 174.147V173.234L375.641 170.885C375.939 170.612 376.151 170.374 376.278 170.171C376.405 169.962 376.469 169.747 376.469 169.525C376.469 169.233 376.354 168.992 376.126 168.802C375.898 168.611 375.612 168.516 375.27 168.516C374.953 168.516 374.655 168.58 374.376 168.707C374.103 168.833 373.805 169.043 373.482 169.334L372.749 168.459C373.136 168.111 373.545 167.847 373.976 167.67C374.408 167.492 374.852 167.403 375.308 167.403C375.663 167.403 375.99 167.454 376.288 167.556C376.592 167.651 376.849 167.787 377.058 167.965C377.274 168.142 377.439 168.358 377.553 168.611C377.673 168.865 377.734 169.141 377.734 169.439C377.734 169.819 377.638 170.171 377.448 170.495C377.258 170.818 376.928 171.189 376.459 171.608L374.832 173.053H377.819V174.147H373.016Z" fill="#41475E" fill-opacity="0.71"/>
<path d="M351.796 243.107V236.449H355.049C355.386 236.449 355.693 236.5 355.972 236.601C356.257 236.703 356.502 236.845 356.704 237.029C356.907 237.207 357.066 237.422 357.18 237.676C357.294 237.93 357.351 238.209 357.351 238.513C357.351 238.932 357.231 239.306 356.99 239.636C356.755 239.965 356.441 240.209 356.048 240.368L357.522 243.107H355.982L354.678 240.558H353.176V243.107H351.796ZM354.926 237.638H353.176V239.426H354.926C355.237 239.426 355.484 239.344 355.668 239.179C355.858 239.014 355.953 238.798 355.953 238.532C355.953 238.266 355.858 238.05 355.668 237.885C355.484 237.72 355.237 237.638 354.926 237.638ZM360.107 243.821V242.927C359.644 242.889 359.206 242.781 358.794 242.603C358.382 242.426 358.021 242.191 357.71 241.899L358.385 240.977C358.626 241.211 358.896 241.405 359.194 241.557C359.492 241.703 359.796 241.801 360.107 241.852V240.311L359.584 240.206C358.969 240.092 358.525 239.902 358.252 239.636C357.986 239.369 357.853 238.989 357.853 238.494C357.853 237.923 358.052 237.47 358.452 237.134C358.858 236.798 359.409 236.617 360.107 236.592V235.888H360.735V236.62C361.115 236.658 361.496 236.744 361.876 236.877C362.263 237.004 362.618 237.169 362.941 237.372L362.39 238.37C362.098 238.193 361.813 238.05 361.534 237.942C361.255 237.835 360.988 237.759 360.735 237.714V239.227L361.239 239.312C361.898 239.439 362.377 239.636 362.675 239.902C362.973 240.162 363.122 240.526 363.122 240.996C363.122 241.56 362.907 242.017 362.475 242.365C362.051 242.714 361.47 242.904 360.735 242.936V243.821H360.107ZM360.05 239.141L360.107 239.15V237.667C359.79 237.673 359.536 237.743 359.346 237.876C359.156 238.009 359.061 238.18 359.061 238.389C359.061 238.624 359.127 238.792 359.26 238.894C359.394 238.995 359.657 239.078 360.05 239.141ZM360.773 240.377L360.735 240.368V241.89C361.077 241.864 361.35 241.782 361.553 241.642C361.762 241.503 361.867 241.325 361.867 241.11C361.867 240.888 361.794 240.729 361.648 240.634C361.502 240.533 361.21 240.447 360.773 240.377ZM366.171 236.449V243.107H364.868V237.771L363.565 238.304V237.172L365.344 236.449H366.171ZM369.687 243.212C369.301 243.212 368.942 243.164 368.612 243.069C368.289 242.968 368.01 242.831 367.775 242.66C367.541 242.489 367.357 242.283 367.224 242.042C367.097 241.801 367.034 241.535 367.034 241.243C367.034 240.901 367.138 240.59 367.347 240.311C367.563 240.032 367.842 239.823 368.184 239.683C367.905 239.525 367.68 239.318 367.509 239.065C367.338 238.811 367.252 238.529 367.252 238.218C367.252 237.952 367.313 237.705 367.433 237.476C367.56 237.248 367.731 237.052 367.947 236.887C368.162 236.715 368.419 236.582 368.717 236.487C369.022 236.392 369.345 236.344 369.687 236.344C370.03 236.344 370.35 236.392 370.648 236.487C370.952 236.582 371.212 236.715 371.428 236.887C371.65 237.052 371.821 237.248 371.942 237.476C372.068 237.705 372.132 237.952 372.132 238.218C372.132 238.529 372.046 238.814 371.875 239.074C371.704 239.328 371.479 239.531 371.2 239.683C371.542 239.823 371.818 240.032 372.027 240.311C372.243 240.59 372.351 240.901 372.351 241.243C372.351 241.535 372.284 241.801 372.151 242.042C372.024 242.283 371.843 242.489 371.609 242.66C371.374 242.831 371.092 242.968 370.762 243.069C370.439 243.164 370.08 243.212 369.687 243.212ZM369.687 239.198C370.017 239.198 370.293 239.112 370.515 238.941C370.743 238.77 370.857 238.558 370.857 238.304C370.857 238.05 370.746 237.838 370.524 237.667C370.302 237.489 370.023 237.4 369.687 237.4C369.358 237.4 369.082 237.489 368.86 237.667C368.638 237.838 368.527 238.05 368.527 238.304C368.527 238.558 368.638 238.77 368.86 238.941C369.088 239.112 369.364 239.198 369.687 239.198ZM369.687 242.147C370.08 242.147 370.404 242.055 370.658 241.871C370.918 241.687 371.047 241.452 371.047 241.167C371.047 240.888 370.918 240.656 370.658 240.473C370.404 240.282 370.08 240.187 369.687 240.187C369.301 240.187 368.977 240.282 368.717 240.473C368.463 240.656 368.337 240.888 368.337 241.167C368.337 241.452 368.463 241.687 368.717 241.871C368.977 242.055 369.301 242.147 369.687 242.147ZM373.016 243.107V242.194L375.641 239.845C375.939 239.572 376.151 239.334 376.278 239.131C376.405 238.922 376.469 238.707 376.469 238.485C376.469 238.193 376.354 237.952 376.126 237.762C375.898 237.571 375.612 237.476 375.27 237.476C374.953 237.476 374.655 237.54 374.376 237.667C374.103 237.793 373.805 238.003 373.482 238.294L372.749 237.419C373.136 237.071 373.545 236.807 373.976 236.63C374.408 236.452 374.852 236.363 375.308 236.363C375.663 236.363 375.99 236.414 376.288 236.516C376.592 236.611 376.849 236.747 377.058 236.925C377.274 237.102 377.439 237.318 377.553 237.571C377.673 237.825 377.734 238.101 377.734 238.399C377.734 238.779 377.638 239.131 377.448 239.455C377.258 239.778 376.928 240.149 376.459 240.568L374.832 242.013H377.819V243.107H373.016Z" fill="#41475E" fill-opacity="0.71"/>
<line x1="130.05" y1="45.4123" x2="394" y2="45.4123" stroke="#D9DAE1" stroke-width="1.18897"/>
</g>
<g filter="url(#filter1_d_5_2858)">
<rect x="3.99994" y="283.091" width="347.365" height="210.083" rx="16.6402" fill="white"/>
<path d="M83.0409 403.733C83.0409 401.435 84.9034 399.573 87.201 399.573H93.441C95.7386 399.573 97.6011 401.435 97.6011 403.733V449.494H83.0409V403.733Z" fill="#5B78FF"/>
<rect x="83.0409" y="464.054" width="31.2004" height="6.24009" rx="2.08003" fill="#F6F7F8"/>
<rect x="31.0404" y="387.093" width="20.8003" height="6.24009" rx="2.08003" fill="#F6F7F8"/>
<rect x="33.1204" y="328.852" width="56.1608" height="6.24009" rx="2.08003" fill="#F6F7F8"/>
<rect x="155.842" y="328.852" width="56.1608" height="6.24009" rx="2.08003" fill="#F6F7F8"/>
<rect x="268.164" y="328.852" width="56.1608" height="6.24009" rx="2.08003" fill="#F6F7F8"/>
<rect x="33.1204" y="337.172" width="24.9603" height="6.24009" rx="2.08003" fill="#F6F7F8"/>
<rect x="155.842" y="337.172" width="24.9603" height="6.24009" rx="2.08003" fill="#F6F7F8"/>
<rect x="268.164" y="337.172" width="24.9603" height="6.24009" rx="2.08003" fill="#F6F7F8"/>
<rect x="31.0404" y="405.813" width="20.8003" height="6.24009" rx="2.08003" fill="#F6F7F8"/>
<rect x="31.0404" y="426.613" width="20.8003" height="6.24009" rx="2.08003" fill="#F6F7F8"/>
<rect x="31.0404" y="445.333" width="20.8003" height="6.24009" rx="2.08003" fill="#F6F7F8"/>
<rect x="143.362" y="464.054" width="31.2004" height="6.24009" rx="2.08003" fill="#F6F7F8"/>
<rect x="209.923" y="464.054" width="31.2004" height="6.24009" rx="2.08003" fill="#F6F7F8"/>
<rect x="272.323" y="464.054" width="31.2004" height="6.24009" rx="2.08003" fill="#F6F7F8"/>
<path d="M143.362 416.213C143.362 413.915 145.224 412.053 147.522 412.053H153.762C156.06 412.053 157.922 413.915 157.922 416.213V449.493H143.362V416.213Z" fill="#5B78FF"/>
<path d="M205.763 397.493C205.763 395.195 207.625 393.333 209.923 393.333H216.163C218.46 393.333 220.323 395.195 220.323 397.493V449.493H205.763V397.493Z" fill="#5B78FF"/>
<path d="M268.164 405.813C268.164 403.515 270.026 401.653 272.324 401.653H278.564C280.861 401.653 282.724 403.515 282.724 405.813V449.494H268.164V405.813Z" fill="#5B78FF"/>
<path d="M103.841 418.293C103.841 415.996 105.704 414.133 108.001 414.133H114.242C116.539 414.133 118.402 415.996 118.402 418.293V449.494H103.841V418.293Z" fill="#C2CFE0"/>
<path d="M164.162 426.613C164.162 424.316 166.025 422.453 168.322 422.453H174.562C176.86 422.453 178.722 424.316 178.722 426.613V449.494H164.162V426.613Z" fill="#C2CFE0"/>
<path d="M226.563 426.613C226.563 424.316 228.426 422.453 230.723 422.453H236.963C239.261 422.453 241.123 424.316 241.123 426.613V449.494H226.563V426.613Z" fill="#C2CFE0"/>
<path d="M288.964 418.293C288.964 415.996 290.826 414.133 293.124 414.133H299.364C301.661 414.133 303.524 415.996 303.524 418.293V449.494H288.964V418.293Z" fill="#C2CFE0"/>
<path d="M36.0697 371.615L33.017 365.533V372.2H31.8708V364.013H33.5083L36.0814 369.241L38.6428 364.013H40.2802V372.2H39.1223V365.521L36.0697 371.615ZM41.5355 369.217C41.5355 368.788 41.6135 368.387 41.7694 368.013C41.9332 367.631 42.1554 367.303 42.4361 367.03C42.7168 366.749 43.0443 366.531 43.4185 366.375C43.8006 366.211 44.2061 366.13 44.6349 366.13C45.0638 366.13 45.4653 366.211 45.8396 366.375C46.2217 366.531 46.5491 366.749 46.822 367.03C47.1027 367.303 47.3211 367.631 47.477 368.013C47.6408 368.387 47.7226 368.788 47.7226 369.217C47.7226 369.654 47.6408 370.063 47.477 370.445C47.3211 370.82 47.1027 371.147 46.822 371.428C46.5491 371.701 46.2217 371.919 45.8396 372.083C45.4653 372.239 45.0638 372.317 44.6349 372.317C44.2061 372.317 43.8006 372.239 43.4185 372.083C43.0443 371.919 42.7168 371.701 42.4361 371.428C42.1554 371.147 41.9332 370.82 41.7694 370.445C41.6135 370.063 41.5355 369.654 41.5355 369.217ZM44.6349 371.287C45.1729 371.287 45.6291 371.089 46.0033 370.691C46.3854 370.285 46.5764 369.794 46.5764 369.217C46.5764 368.64 46.3854 368.153 46.0033 367.755C45.6291 367.358 45.1729 367.159 44.6349 367.159C44.0969 367.159 43.6369 367.358 43.2548 367.755C42.8727 368.153 42.6817 368.64 42.6817 369.217C42.6817 369.794 42.8688 370.285 43.2431 370.691C43.6252 371.089 44.0891 371.287 44.6349 371.287ZM48.8289 372.2V366.246H49.9985V366.843C50.2324 366.609 50.4975 366.434 50.7938 366.317C51.0979 366.192 51.4293 366.13 51.788 366.13C52.4663 366.13 53.0238 366.348 53.4605 366.785C53.8971 367.213 54.1154 367.771 54.1154 368.457V372.2H52.9459V368.656C52.9459 368.188 52.8094 367.822 52.5365 367.556C52.2714 367.284 51.9166 367.147 51.4722 367.147C51.1603 367.147 50.8757 367.213 50.6184 367.346C50.3689 367.478 50.1622 367.669 49.9985 367.919V372.2H48.8289ZM56.0084 370.726V367.229H54.7453V366.246H56.0084V364.726L57.1663 364.445V366.246H58.9207V367.229H57.1663V370.457C57.1663 370.761 57.2326 370.976 57.3652 371.1C57.5055 371.225 57.7316 371.287 58.0435 371.287C58.2073 371.287 58.3515 371.28 58.4763 371.264C58.6088 371.241 58.7492 371.202 58.8973 371.147V372.13C58.7414 372.184 58.5581 372.227 58.3476 372.258C58.1449 372.289 57.9578 372.305 57.7862 372.305C57.2092 372.305 56.7687 372.172 56.4646 371.907C56.1605 371.634 56.0084 371.241 56.0084 370.726ZM59.7824 372.2V364.013L60.952 363.755V366.843C61.1859 366.609 61.451 366.434 61.7473 366.317C62.0514 366.192 62.3828 366.13 62.7414 366.13C63.4198 366.13 63.9773 366.348 64.414 366.785C64.8506 367.213 65.0689 367.771 65.0689 368.457V372.2H63.8993V368.656C63.8993 368.188 63.7629 367.822 63.49 367.556C63.2249 367.284 62.8701 367.147 62.4257 367.147C62.1138 367.147 61.8292 367.213 61.5719 367.346C61.3223 367.478 61.1157 367.669 60.952 367.919V372.2H59.7824ZM67.588 363.755V372.2H66.4184V364.013L67.588 363.755ZM70.4509 372.761L70.6848 372.223L68.3105 366.246H69.5971L71.3398 370.796L73.2579 366.246H74.521L71.6438 372.913C71.3709 373.545 71.0591 373.997 70.7082 374.27C70.3573 374.551 69.909 374.691 69.3631 374.691C69.2384 374.691 69.1214 374.683 69.0123 374.668C68.9109 374.66 68.8212 374.644 68.7433 374.621V373.592C68.8212 373.607 68.8992 373.619 68.9772 373.627C69.063 373.634 69.1604 373.638 69.2696 373.638C69.5347 373.638 69.7647 373.564 69.9596 373.416C70.1624 373.276 70.3261 373.057 70.4509 372.761ZM81.8087 371.194C82.2765 371.194 82.7249 371.1 83.1537 370.913C83.5826 370.718 83.9451 370.445 84.2414 370.094L85.0484 370.913C84.6508 371.35 84.1596 371.697 83.5748 371.954C82.9978 372.204 82.3974 372.328 81.7736 372.328C81.1732 372.328 80.6079 372.219 80.0777 372.001C79.5553 371.783 79.103 371.486 78.721 371.112C78.3389 370.73 78.0348 370.282 77.8087 369.767C77.5904 369.245 77.4812 368.691 77.4812 368.106C77.4812 367.514 77.5904 366.96 77.8087 366.445C78.0348 365.931 78.3389 365.486 78.721 365.112C79.103 364.73 79.5553 364.43 80.0777 364.211C80.6079 363.993 81.1732 363.884 81.7736 363.884C82.413 363.884 83.0251 364.013 83.6098 364.27C84.2024 364.519 84.6898 364.862 85.0718 365.299L84.2531 366.141C83.9412 365.783 83.567 365.506 83.1303 365.311C82.6937 365.116 82.2414 365.018 81.7736 365.018C81.3447 365.018 80.9432 365.096 80.5689 365.252C80.1946 365.408 79.8711 365.627 79.5982 365.907C79.333 366.18 79.1225 366.508 78.9666 366.89C78.8106 367.264 78.7327 367.669 78.7327 368.106C78.7327 368.543 78.8106 368.952 78.9666 369.334C79.1225 369.708 79.3369 370.032 79.6098 370.305C79.8828 370.578 80.2063 370.796 80.5806 370.96C80.9627 371.116 81.372 371.194 81.8087 371.194ZM87.9926 372.305C87.3454 372.305 86.8191 372.137 86.4137 371.802C86.0082 371.467 85.8055 371.03 85.8055 370.492C85.8055 369.931 86.0199 369.49 86.4488 369.17C86.8776 368.843 87.4663 368.679 88.2148 368.679C88.5033 368.679 88.784 368.71 89.0569 368.773C89.3298 368.827 89.5911 368.905 89.8406 369.007V368.375C89.8406 367.954 89.7158 367.638 89.4663 367.428C89.2168 367.217 88.8581 367.112 88.3903 367.112C88.1174 367.112 87.8328 367.155 87.5365 367.241C87.2402 367.319 86.9088 367.443 86.5423 367.615L86.1096 366.738C86.554 366.527 86.9751 366.375 87.3727 366.282C87.7704 366.18 88.1642 366.13 88.554 366.13C89.3259 366.13 89.9224 366.317 90.3435 366.691C90.7723 367.057 90.9868 367.58 90.9868 368.258V372.2H89.8406V371.685C89.5755 371.896 89.2909 372.052 88.9868 372.153C88.6827 372.254 88.3513 372.305 87.9926 372.305ZM86.9283 370.469C86.9283 370.757 87.0491 370.991 87.2909 371.17C87.5404 371.35 87.864 371.439 88.2616 371.439C88.5735 371.439 88.862 371.393 89.1271 371.299C89.3922 371.206 89.63 371.065 89.8406 370.878V369.849C89.6144 369.724 89.3766 369.634 89.1271 369.58C88.8776 369.517 88.6047 369.486 88.3084 369.486C87.8873 369.486 87.5521 369.576 87.3026 369.755C87.053 369.935 86.9283 370.172 86.9283 370.469ZM91.773 371.428L92.4046 370.656C92.7165 370.898 93.0323 371.085 93.352 371.217C93.6795 371.342 94.0109 371.404 94.3461 371.404C94.7672 371.404 95.1103 371.323 95.3754 371.159C95.6405 370.995 95.773 370.781 95.773 370.515C95.773 370.305 95.6951 370.137 95.5391 370.013C95.3832 369.888 95.1415 369.802 94.814 369.755L93.7379 369.603C93.1532 369.517 92.7087 369.338 92.4046 369.065C92.1083 368.785 91.9602 368.414 91.9602 367.954C91.9602 367.416 92.1746 366.983 92.6034 366.656C93.0323 366.321 93.5937 366.153 94.2877 366.153C94.7243 366.153 95.1376 366.215 95.5274 366.34C95.9251 366.465 96.311 366.656 96.6853 366.913L96.0888 367.685C95.7613 367.467 95.4417 367.311 95.1298 367.217C94.8257 367.116 94.5177 367.065 94.2058 367.065C93.8471 367.065 93.5586 367.139 93.3403 367.287C93.122 367.436 93.0128 367.631 93.0128 367.872C93.0128 368.091 93.0869 368.258 93.235 368.375C93.391 368.484 93.6444 368.566 93.9953 368.621L95.0713 368.773C95.6561 368.859 96.1005 369.042 96.4046 369.323C96.7165 369.603 96.8724 369.974 96.8724 370.434C96.8724 370.699 96.8062 370.948 96.6736 371.182C96.5489 371.408 96.3734 371.603 96.1473 371.767C95.929 371.931 95.6678 372.063 95.3637 372.165C95.0596 372.258 94.7321 372.305 94.3812 372.305C93.8666 372.305 93.3832 372.231 92.9309 372.083C92.4865 371.935 92.1005 371.716 91.773 371.428ZM97.7712 372.2V364.013L98.9408 363.755V366.843C99.1747 366.609 99.4398 366.434 99.7361 366.317C100.04 366.192 100.372 366.13 100.73 366.13C101.409 366.13 101.966 366.348 102.403 366.785C102.839 367.213 103.058 367.771 103.058 368.457V372.2H101.888V368.656C101.888 368.188 101.752 367.822 101.479 367.556C101.214 367.284 100.859 367.147 100.414 367.147C100.103 367.147 99.818 367.213 99.5607 367.346C99.3112 367.478 99.1045 367.669 98.9408 367.919V372.2H97.7712ZM106.992 372.2V364.013H113.039V365.089H108.22V367.603H111.401V368.656H108.22V372.2H106.992ZM115.046 363.755V372.2H113.876V364.013L115.046 363.755ZM116.154 369.217C116.154 368.788 116.232 368.387 116.388 368.013C116.552 367.631 116.774 367.303 117.055 367.03C117.335 366.749 117.663 366.531 118.037 366.375C118.419 366.211 118.825 366.13 119.253 366.13C119.682 366.13 120.084 366.211 120.458 366.375C120.84 366.531 121.168 366.749 121.441 367.03C121.721 367.303 121.94 367.631 122.095 368.013C122.259 368.387 122.341 368.788 122.341 369.217C122.341 369.654 122.259 370.063 122.095 370.445C121.94 370.82 121.721 371.147 121.441 371.428C121.168 371.701 120.84 371.919 120.458 372.083C120.084 372.239 119.682 372.317 119.253 372.317C118.825 372.317 118.419 372.239 118.037 372.083C117.663 371.919 117.335 371.701 117.055 371.428C116.774 371.147 116.552 370.82 116.388 370.445C116.232 370.063 116.154 369.654 116.154 369.217ZM119.253 371.287C119.791 371.287 120.248 371.089 120.622 370.691C121.004 370.285 121.195 369.794 121.195 369.217C121.195 368.64 121.004 368.153 120.622 367.755C120.248 367.358 119.791 367.159 119.253 367.159C118.715 367.159 118.255 367.358 117.873 367.755C117.491 368.153 117.3 368.64 117.3 369.217C117.3 369.794 117.487 370.285 117.862 370.691C118.244 371.089 118.708 371.287 119.253 371.287ZM125.579 372.2H124.444L122.783 366.246H123.918L125.064 370.621L126.433 366.246H127.438L128.795 370.621L129.953 366.246H131.052L129.38 372.2H128.257L126.924 367.837L125.579 372.2Z" fill="#41475E" fill-opacity="0.54"/>
<path d="M229.197 369.052V363.594H231.676C232.217 363.594 232.653 363.745 232.986 364.046C233.324 364.343 233.493 364.73 233.493 365.208C233.493 365.567 233.392 365.879 233.189 366.144C232.986 366.404 232.713 366.591 232.37 366.705L233.587 369.052H232.682L231.551 366.814H230.015V369.052H229.197ZM231.606 364.311H230.015V366.136H231.606C231.923 366.136 232.178 366.053 232.37 365.886C232.568 365.715 232.666 365.494 232.666 365.224C232.666 364.948 232.568 364.727 232.37 364.561C232.178 364.395 231.923 364.311 231.606 364.311ZM237.445 368.6C237.217 368.777 236.978 368.909 236.728 368.998C236.479 369.081 236.206 369.122 235.909 369.122C235.618 369.122 235.345 369.07 235.091 368.966C234.836 368.857 234.615 368.712 234.428 368.53C234.241 368.348 234.093 368.132 233.983 367.883C233.879 367.628 233.828 367.355 233.828 367.064C233.828 366.778 233.879 366.51 233.983 366.261C234.087 366.011 234.228 365.796 234.405 365.614C234.581 365.432 234.792 365.289 235.036 365.185C235.28 365.076 235.54 365.021 235.816 365.021C236.086 365.021 236.338 365.076 236.572 365.185C236.811 365.289 237.014 365.434 237.18 365.621C237.352 365.803 237.487 366.022 237.586 366.276C237.685 366.531 237.734 366.804 237.734 367.095V367.321H234.599C234.651 367.649 234.802 367.922 235.052 368.14C235.301 368.353 235.597 368.46 235.941 368.46C236.133 368.46 236.317 368.428 236.494 368.366C236.671 368.304 236.822 368.218 236.946 368.109L237.445 368.6ZM235.8 365.676C235.504 365.676 235.244 365.775 235.02 365.972C234.802 366.17 234.664 366.425 234.607 366.736H236.962C236.905 366.435 236.767 366.183 236.549 365.98C236.336 365.777 236.086 365.676 235.8 365.676ZM238.14 368.538L238.561 368.023C238.769 368.184 238.98 368.309 239.193 368.397C239.411 368.48 239.632 368.522 239.856 368.522C240.136 368.522 240.365 368.467 240.542 368.358C240.719 368.249 240.807 368.106 240.807 367.929C240.807 367.789 240.755 367.677 240.651 367.594C240.547 367.511 240.386 367.454 240.168 367.423L239.45 367.321C239.06 367.264 238.764 367.144 238.561 366.963C238.364 366.775 238.265 366.528 238.265 366.222C238.265 365.863 238.408 365.575 238.694 365.356C238.98 365.133 239.354 365.021 239.817 365.021C240.108 365.021 240.383 365.063 240.643 365.146C240.908 365.229 241.166 365.356 241.415 365.528L241.018 366.042C240.799 365.897 240.586 365.793 240.378 365.731C240.175 365.663 239.97 365.629 239.762 365.629C239.523 365.629 239.331 365.679 239.185 365.777C239.04 365.876 238.967 366.006 238.967 366.167C238.967 366.313 239.016 366.425 239.115 366.502C239.219 366.575 239.388 366.63 239.622 366.666L240.339 366.768C240.729 366.825 241.025 366.947 241.228 367.134C241.436 367.321 241.54 367.568 241.54 367.875C241.54 368.052 241.496 368.218 241.407 368.374C241.324 368.525 241.207 368.655 241.057 368.764C240.911 368.873 240.737 368.961 240.534 369.029C240.331 369.091 240.113 369.122 239.879 369.122C239.536 369.122 239.214 369.073 238.912 368.974C238.616 368.875 238.359 368.73 238.14 368.538ZM242.903 365.083V367.438C242.903 367.75 242.992 367.997 243.168 368.179C243.35 368.361 243.589 368.452 243.886 368.452C244.094 368.452 244.281 368.408 244.447 368.319C244.613 368.226 244.751 368.096 244.86 367.929V365.083H245.64V369.052H244.86V368.655C244.704 368.81 244.525 368.93 244.322 369.013C244.125 369.091 243.907 369.13 243.667 369.13C243.215 369.13 242.844 368.985 242.552 368.694C242.267 368.402 242.124 368.028 242.124 367.571V365.083H242.903ZM246.563 369.052V365.083H247.343V365.458C247.488 365.312 247.655 365.2 247.842 365.122C248.029 365.044 248.234 365.005 248.458 365.005C248.723 365.005 248.962 365.065 249.175 365.185C249.388 365.299 249.557 365.46 249.682 365.668C249.843 365.45 250.036 365.286 250.259 365.177C250.488 365.063 250.743 365.005 251.023 365.005C251.46 365.005 251.816 365.151 252.091 365.442C252.372 365.728 252.513 366.1 252.513 366.557V369.052H251.733V366.69C251.733 366.378 251.65 366.133 251.483 365.957C251.322 365.775 251.101 365.684 250.82 365.684C250.628 365.684 250.454 365.728 250.298 365.816C250.142 365.905 250.007 366.037 249.893 366.214C249.903 366.266 249.911 366.323 249.916 366.386C249.921 366.443 249.924 366.5 249.924 366.557V369.052H249.152V366.69C249.152 366.378 249.069 366.133 248.902 365.957C248.741 365.775 248.52 365.684 248.24 365.684C248.052 365.684 247.884 365.725 247.733 365.809C247.582 365.886 247.452 366.006 247.343 366.167V369.052H246.563ZM256.847 368.6C256.619 368.777 256.379 368.909 256.13 368.998C255.88 369.081 255.607 369.122 255.311 369.122C255.02 369.122 254.747 369.07 254.492 368.966C254.238 368.857 254.017 368.712 253.83 368.53C253.643 368.348 253.494 368.132 253.385 367.883C253.281 367.628 253.229 367.355 253.229 367.064C253.229 366.778 253.281 366.51 253.385 366.261C253.489 366.011 253.63 365.796 253.806 365.614C253.983 365.432 254.194 365.289 254.438 365.185C254.682 365.076 254.942 365.021 255.218 365.021C255.488 365.021 255.74 365.076 255.974 365.185C256.213 365.289 256.416 365.434 256.582 365.621C256.754 365.803 256.889 366.022 256.988 366.276C257.086 366.531 257.136 366.804 257.136 367.095V367.321H254.001C254.053 367.649 254.204 367.922 254.453 368.14C254.703 368.353 254.999 368.46 255.342 368.46C255.535 368.46 255.719 368.428 255.896 368.366C256.073 368.304 256.223 368.218 256.348 368.109L256.847 368.6ZM255.202 365.676C254.906 365.676 254.646 365.775 254.422 365.972C254.204 366.17 254.066 366.425 254.009 366.736H256.364C256.307 366.435 256.169 366.183 255.951 365.98C255.737 365.777 255.488 365.676 255.202 365.676Z" fill="#41475E" fill-opacity="0.54"/>
<path d="M31.594 307.433H32.3972L35.4381 311.48V307.433H36.21V312.891H35.4927L32.366 308.712V312.891H31.594V307.433ZM40.6728 312.439C40.4441 312.616 40.205 312.748 39.9555 312.837C39.7059 312.92 39.433 312.962 39.1367 312.962C38.8456 312.962 38.5727 312.91 38.318 312.806C38.0633 312.697 37.8424 312.551 37.6553 312.369C37.4681 312.187 37.32 311.971 37.2108 311.722C37.1069 311.467 37.0549 311.194 37.0549 310.903C37.0549 310.617 37.1069 310.35 37.2108 310.1C37.3148 309.851 37.4551 309.635 37.6319 309.453C37.8086 309.271 38.0191 309.128 38.2634 309.024C38.5078 308.915 38.7677 308.86 39.0432 308.86C39.3135 308.86 39.5656 308.915 39.7995 309.024C40.0386 309.128 40.2414 309.274 40.4077 309.461C40.5792 309.643 40.7144 309.861 40.8132 310.116C40.9119 310.37 40.9613 310.643 40.9613 310.934V311.16H37.8268C37.8788 311.488 38.0295 311.761 38.279 311.979C38.5286 312.192 38.8248 312.299 39.1679 312.299C39.3603 312.299 39.5448 312.268 39.7215 312.205C39.8983 312.143 40.049 312.057 40.1738 311.948L40.6728 312.439ZM39.0276 309.515C38.7313 309.515 38.4714 309.614 38.2479 309.812C38.0295 310.009 37.8918 310.264 37.8346 310.576H40.1894C40.1322 310.274 39.9944 310.022 39.7761 309.819C39.563 309.617 39.3135 309.515 39.0276 309.515ZM42.0663 311.909V309.578H41.2242V308.923H42.0663V307.909L42.8382 307.722V308.923H44.0078V309.578H42.8382V311.73C42.8382 311.932 42.8824 312.075 42.9707 312.159C43.0643 312.242 43.2151 312.283 43.423 312.283C43.5321 312.283 43.6283 312.278 43.7115 312.268C43.7998 312.252 43.8934 312.226 43.9922 312.19V312.845C43.8882 312.881 43.7661 312.91 43.6257 312.93C43.4906 312.951 43.3658 312.962 43.2514 312.962C42.8668 312.962 42.5731 312.873 42.3704 312.697C42.1676 312.515 42.0663 312.252 42.0663 311.909ZM48.9564 312.221C49.2682 312.221 49.5671 312.159 49.853 312.034C50.1389 311.904 50.3807 311.722 50.5782 311.488L51.1162 312.034C50.8511 312.325 50.5236 312.556 50.1337 312.728C49.7491 312.894 49.3488 312.977 48.933 312.977C48.5327 312.977 48.1558 312.904 47.8024 312.759C47.4541 312.613 47.1526 312.416 46.8979 312.166C46.6432 311.912 46.4404 311.613 46.2897 311.27C46.1441 310.921 46.0714 310.552 46.0714 310.162C46.0714 309.767 46.1441 309.398 46.2897 309.055C46.4404 308.712 46.6432 308.416 46.8979 308.166C47.1526 307.912 47.4541 307.711 47.8024 307.566C48.1558 307.42 48.5327 307.348 48.933 307.348C49.3592 307.348 49.7673 307.433 50.1571 307.605C50.5522 307.771 50.8771 308 51.1318 308.291L50.586 308.852C50.3781 308.613 50.1285 308.429 49.8374 308.299C49.5464 308.169 49.2449 308.104 48.933 308.104C48.6471 308.104 48.3794 308.156 48.1298 308.26C47.8803 308.364 47.6646 308.509 47.4827 308.697C47.3059 308.878 47.1656 309.097 47.0616 309.351C46.9577 309.601 46.9057 309.871 46.9057 310.162C46.9057 310.454 46.9577 310.726 47.0616 310.981C47.1656 311.231 47.3085 311.446 47.4905 311.628C47.6724 311.81 47.8881 311.956 48.1376 312.065C48.3924 312.169 48.6653 312.221 48.9564 312.221ZM53.079 312.962C52.6475 312.962 52.2967 312.85 52.0263 312.626C51.756 312.403 51.6209 312.112 51.6209 311.753C51.6209 311.379 51.7638 311.085 52.0497 310.872C52.3356 310.654 52.7281 310.544 53.2271 310.544C53.4195 310.544 53.6066 310.565 53.7885 310.607C53.9705 310.643 54.1446 310.695 54.3109 310.763V310.342C54.3109 310.061 54.2278 309.851 54.0614 309.71C53.8951 309.57 53.656 309.5 53.3441 309.5C53.1622 309.5 52.9724 309.528 52.7749 309.585C52.5774 309.637 52.3564 309.721 52.1121 309.835L51.8236 309.25C52.1199 309.11 52.4006 309.008 52.6657 308.946C52.9308 308.878 53.1933 308.845 53.4532 308.845C53.9679 308.845 54.3655 308.969 54.6462 309.219C54.9321 309.463 55.0751 309.812 55.0751 310.264V312.891H54.3109V312.548C54.1342 312.689 53.9445 312.793 53.7417 312.86C53.539 312.928 53.3181 312.962 53.079 312.962ZM52.3694 311.737C52.3694 311.93 52.45 312.086 52.6111 312.205C52.7775 312.325 52.9932 312.385 53.2583 312.385C53.4662 312.385 53.6586 312.353 53.8353 312.291C54.0121 312.229 54.1706 312.135 54.3109 312.01V311.324C54.1602 311.241 54.0017 311.181 53.8353 311.145C53.669 311.103 53.487 311.082 53.2895 311.082C53.0088 311.082 52.7853 311.142 52.6189 311.262C52.4526 311.381 52.3694 311.54 52.3694 311.737ZM55.5993 312.377L56.0203 311.862C56.2282 312.023 56.4388 312.148 56.6519 312.236C56.8702 312.32 57.0911 312.361 57.3147 312.361C57.5954 312.361 57.8241 312.307 58.0008 312.197C58.1776 312.088 58.2659 311.945 58.2659 311.769C58.2659 311.628 58.2139 311.517 58.11 311.433C58.006 311.35 57.8449 311.293 57.6266 311.262L56.9092 311.16C56.5193 311.103 56.223 310.984 56.0203 310.802C55.8228 310.615 55.724 310.368 55.724 310.061C55.724 309.702 55.867 309.414 56.1529 309.196C56.4388 308.972 56.813 308.86 57.2757 308.86C57.5668 308.86 57.8423 308.902 58.1022 308.985C58.3673 309.068 58.6246 309.196 58.8741 309.367L58.4765 309.882C58.2581 309.736 58.045 309.632 57.8371 309.57C57.6343 309.502 57.429 309.468 57.2211 309.468C56.982 309.468 56.7896 309.518 56.6441 309.617C56.4985 309.715 56.4258 309.845 56.4258 310.006C56.4258 310.152 56.4752 310.264 56.5739 310.342C56.6779 310.415 56.8468 310.469 57.0807 310.505L57.7981 310.607C58.188 310.664 58.4843 310.786 58.687 310.973C58.8949 311.16 58.9989 311.407 58.9989 311.714C58.9989 311.891 58.9547 312.057 58.8663 312.213C58.7831 312.364 58.6662 312.494 58.5154 312.603C58.3699 312.712 58.1958 312.8 57.993 312.868C57.7903 312.93 57.572 312.962 57.3381 312.962C56.995 312.962 56.6727 312.912 56.3712 312.813C56.0749 312.715 55.8176 312.569 55.5993 312.377ZM59.598 312.891V307.433L60.3778 307.262V309.32C60.5337 309.164 60.7105 309.047 60.908 308.969C61.1107 308.886 61.3316 308.845 61.5708 308.845C62.023 308.845 62.3947 308.99 62.6858 309.281C62.9769 309.567 63.1224 309.939 63.1224 310.396V312.891H62.3427V310.529C62.3427 310.217 62.2517 309.973 62.0698 309.796C61.893 309.614 61.6565 309.523 61.3602 309.523C61.1523 309.523 60.9626 309.567 60.791 309.656C60.6247 309.744 60.4869 309.871 60.3778 310.038V312.891H59.598ZM63.5423 308.923H64.4624V308.322C64.4624 307.912 64.5767 307.597 64.8055 307.379C65.0394 307.155 65.3747 307.043 65.8113 307.043C65.9153 307.043 66.014 307.051 66.1076 307.067C66.2012 307.077 66.2895 307.093 66.3727 307.114V307.792C66.2791 307.766 66.196 307.748 66.1232 307.737C66.0504 307.727 65.9699 307.722 65.8815 307.722C65.6684 307.722 65.5072 307.774 65.3981 307.878C65.2941 307.977 65.2421 308.13 65.2421 308.338V308.923H66.3727V309.578H65.2421V312.891H64.4624V309.578H63.5423V308.923ZM67.7486 307.262V312.891H66.9689V307.433L67.7486 307.262ZM68.4876 310.903C68.4876 310.617 68.5396 310.35 68.6435 310.1C68.7527 309.845 68.9009 309.627 69.088 309.445C69.2751 309.258 69.4934 309.112 69.743 309.008C69.9977 308.899 70.268 308.845 70.5539 308.845C70.8398 308.845 71.1075 308.899 71.357 309.008C71.6117 309.112 71.83 309.258 72.012 309.445C72.1991 309.627 72.3446 309.845 72.4486 310.1C72.5578 310.35 72.6123 310.617 72.6123 310.903C72.6123 311.194 72.5578 311.467 72.4486 311.722C72.3446 311.971 72.1991 312.19 72.012 312.377C71.83 312.559 71.6117 312.704 71.357 312.813C71.1075 312.917 70.8398 312.969 70.5539 312.969C70.268 312.969 69.9977 312.917 69.743 312.813C69.4934 312.704 69.2751 312.559 69.088 312.377C68.9009 312.19 68.7527 311.971 68.6435 311.722C68.5396 311.467 68.4876 311.194 68.4876 310.903ZM70.5539 312.283C70.9125 312.283 71.2166 312.151 71.4662 311.886C71.7209 311.615 71.8482 311.288 71.8482 310.903C71.8482 310.518 71.7209 310.194 71.4662 309.928C71.2166 309.663 70.9125 309.531 70.5539 309.531C70.1952 309.531 69.8885 309.663 69.6338 309.928C69.3791 310.194 69.2517 310.518 69.2517 310.903C69.2517 311.288 69.3765 311.615 69.626 311.886C69.8807 312.151 70.19 312.283 70.5539 312.283ZM74.7708 312.891H74.0145L72.9072 308.923H73.6636L74.4277 311.839L75.34 308.923H76.0106L76.915 311.839L77.687 308.923H78.4199L77.3049 312.891H76.5564L75.6675 309.983L74.7708 312.891Z" fill="#41475E" fill-opacity="0.54"/>
<path d="M156.396 307.433H157.199L160.24 311.48V307.433H161.012V312.891H160.294L157.168 308.712V312.891H156.396V307.433ZM165.474 312.439C165.246 312.616 165.007 312.748 164.757 312.837C164.508 312.92 164.235 312.962 163.938 312.962C163.647 312.962 163.374 312.91 163.12 312.806C162.865 312.697 162.644 312.551 162.457 312.369C162.27 312.187 162.122 311.971 162.012 311.722C161.909 311.467 161.857 311.194 161.857 310.903C161.857 310.617 161.909 310.35 162.012 310.1C162.116 309.851 162.257 309.635 162.434 309.453C162.61 309.271 162.821 309.128 163.065 309.024C163.309 308.915 163.569 308.86 163.845 308.86C164.115 308.86 164.367 308.915 164.601 309.024C164.84 309.128 165.043 309.274 165.209 309.461C165.381 309.643 165.516 309.861 165.615 310.116C165.714 310.37 165.763 310.643 165.763 310.934V311.16H162.628C162.68 311.488 162.831 311.761 163.081 311.979C163.33 312.192 163.627 312.299 163.97 312.299C164.162 312.299 164.346 312.268 164.523 312.205C164.7 312.143 164.851 312.057 164.975 311.948L165.474 312.439ZM163.829 309.515C163.533 309.515 163.273 309.614 163.05 309.812C162.831 310.009 162.693 310.264 162.636 310.576H164.991C164.934 310.274 164.796 310.022 164.578 309.819C164.365 309.617 164.115 309.515 163.829 309.515ZM166.868 311.909V309.578H166.026V308.923H166.868V307.909L167.64 307.722V308.923H168.809V309.578H167.64V311.73C167.64 311.932 167.684 312.075 167.772 312.159C167.866 312.242 168.017 312.283 168.225 312.283C168.334 312.283 168.43 312.278 168.513 312.268C168.602 312.252 168.695 312.226 168.794 312.19V312.845C168.69 312.881 168.568 312.91 168.427 312.93C168.292 312.951 168.167 312.962 168.053 312.962C167.668 312.962 167.375 312.873 167.172 312.697C166.969 312.515 166.868 312.252 166.868 311.909ZM173.758 312.221C174.07 312.221 174.369 312.159 174.655 312.034C174.941 311.904 175.182 311.722 175.38 311.488L175.918 312.034C175.653 312.325 175.325 312.556 174.935 312.728C174.551 312.894 174.15 312.977 173.735 312.977C173.334 312.977 172.958 312.904 172.604 312.759C172.256 312.613 171.954 312.416 171.7 312.166C171.445 311.912 171.242 311.613 171.091 311.27C170.946 310.921 170.873 310.552 170.873 310.162C170.873 309.767 170.946 309.398 171.091 309.055C171.242 308.712 171.445 308.416 171.7 308.166C171.954 307.912 172.256 307.711 172.604 307.566C172.958 307.42 173.334 307.348 173.735 307.348C174.161 307.348 174.569 307.433 174.959 307.605C175.354 307.771 175.679 308 175.933 308.291L175.388 308.852C175.18 308.613 174.93 308.429 174.639 308.299C174.348 308.169 174.047 308.104 173.735 308.104C173.449 308.104 173.181 308.156 172.932 308.26C172.682 308.364 172.466 308.509 172.284 308.697C172.108 308.878 171.967 309.097 171.863 309.351C171.759 309.601 171.707 309.871 171.707 310.162C171.707 310.454 171.759 310.726 171.863 310.981C171.967 311.231 172.11 311.446 172.292 311.628C172.474 311.81 172.69 311.956 172.939 312.065C173.194 312.169 173.467 312.221 173.758 312.221ZM177.881 312.962C177.449 312.962 177.098 312.85 176.828 312.626C176.558 312.403 176.423 312.112 176.423 311.753C176.423 311.379 176.566 311.085 176.851 310.872C177.137 310.654 177.53 310.544 178.029 310.544C178.221 310.544 178.408 310.565 178.59 310.607C178.772 310.643 178.946 310.695 179.113 310.763V310.342C179.113 310.061 179.029 309.851 178.863 309.71C178.697 309.57 178.458 309.5 178.146 309.5C177.964 309.5 177.774 309.528 177.577 309.585C177.379 309.637 177.158 309.721 176.914 309.835L176.625 309.25C176.922 309.11 177.202 309.008 177.467 308.946C177.732 308.878 177.995 308.845 178.255 308.845C178.77 308.845 179.167 308.969 179.448 309.219C179.734 309.463 179.877 309.812 179.877 310.264V312.891H179.113V312.548C178.936 312.689 178.746 312.793 178.543 312.86C178.341 312.928 178.12 312.962 177.881 312.962ZM177.171 311.737C177.171 311.93 177.252 312.086 177.413 312.205C177.579 312.325 177.795 312.385 178.06 312.385C178.268 312.385 178.46 312.353 178.637 312.291C178.814 312.229 178.972 312.135 179.113 312.01V311.324C178.962 311.241 178.803 311.181 178.637 311.145C178.471 311.103 178.289 311.082 178.091 311.082C177.81 311.082 177.587 311.142 177.421 311.262C177.254 311.381 177.171 311.54 177.171 311.737ZM180.401 312.377L180.822 311.862C181.03 312.023 181.24 312.148 181.454 312.236C181.672 312.32 181.893 312.361 182.116 312.361C182.397 312.361 182.626 312.307 182.802 312.197C182.979 312.088 183.068 311.945 183.068 311.769C183.068 311.628 183.016 311.517 182.912 311.433C182.808 311.35 182.647 311.293 182.428 311.262L181.711 311.16C181.321 311.103 181.025 310.984 180.822 310.802C180.624 310.615 180.526 310.368 180.526 310.061C180.526 309.702 180.669 309.414 180.955 309.196C181.24 308.972 181.615 308.86 182.077 308.86C182.368 308.86 182.644 308.902 182.904 308.985C183.169 309.068 183.426 309.196 183.676 309.367L183.278 309.882C183.06 309.736 182.847 309.632 182.639 309.57C182.436 309.502 182.231 309.468 182.023 309.468C181.784 309.468 181.591 309.518 181.446 309.617C181.3 309.715 181.227 309.845 181.227 310.006C181.227 310.152 181.277 310.264 181.376 310.342C181.48 310.415 181.648 310.469 181.882 310.505L182.6 310.607C182.99 310.664 183.286 310.786 183.489 310.973C183.697 311.16 183.801 311.407 183.801 311.714C183.801 311.891 183.756 312.057 183.668 312.213C183.585 312.364 183.468 312.494 183.317 312.603C183.172 312.712 182.997 312.8 182.795 312.868C182.592 312.93 182.374 312.962 182.14 312.962C181.797 312.962 181.474 312.912 181.173 312.813C180.877 312.715 180.619 312.569 180.401 312.377ZM184.4 312.891V307.433L185.179 307.262V309.32C185.335 309.164 185.512 309.047 185.71 308.969C185.912 308.886 186.133 308.845 186.372 308.845C186.825 308.845 187.196 308.99 187.487 309.281C187.779 309.567 187.924 309.939 187.924 310.396V312.891H187.144V310.529C187.144 310.217 187.053 309.973 186.871 309.796C186.695 309.614 186.458 309.523 186.162 309.523C185.954 309.523 185.764 309.567 185.593 309.656C185.426 309.744 185.289 309.871 185.179 310.038V312.891H184.4ZM188.344 308.923H189.264V308.322C189.264 307.912 189.378 307.597 189.607 307.379C189.841 307.155 190.176 307.043 190.613 307.043C190.717 307.043 190.816 307.051 190.909 307.067C191.003 307.077 191.091 307.093 191.174 307.114V307.792C191.081 307.766 190.998 307.748 190.925 307.737C190.852 307.727 190.772 307.722 190.683 307.722C190.47 307.722 190.309 307.774 190.2 307.878C190.096 307.977 190.044 308.13 190.044 308.338V308.923H191.174V309.578H190.044V312.891H189.264V309.578H188.344V308.923ZM192.55 307.262V312.891H191.771V307.433L192.55 307.262ZM193.289 310.903C193.289 310.617 193.341 310.35 193.445 310.1C193.554 309.845 193.703 309.627 193.89 309.445C194.077 309.258 194.295 309.112 194.545 309.008C194.799 308.899 195.07 308.845 195.356 308.845C195.641 308.845 195.909 308.899 196.159 309.008C196.413 309.112 196.632 309.258 196.814 309.445C197.001 309.627 197.146 309.845 197.25 310.1C197.359 310.35 197.414 310.617 197.414 310.903C197.414 311.194 197.359 311.467 197.25 311.722C197.146 311.971 197.001 312.19 196.814 312.377C196.632 312.559 196.413 312.704 196.159 312.813C195.909 312.917 195.641 312.969 195.356 312.969C195.07 312.969 194.799 312.917 194.545 312.813C194.295 312.704 194.077 312.559 193.89 312.377C193.703 312.19 193.554 311.971 193.445 311.722C193.341 311.467 193.289 311.194 193.289 310.903ZM195.356 312.283C195.714 312.283 196.018 312.151 196.268 311.886C196.523 311.615 196.65 311.288 196.65 310.903C196.65 310.518 196.523 310.194 196.268 309.928C196.018 309.663 195.714 309.531 195.356 309.531C194.997 309.531 194.69 309.663 194.435 309.928C194.181 310.194 194.053 310.518 194.053 310.903C194.053 311.288 194.178 311.615 194.428 311.886C194.682 312.151 194.992 312.283 195.356 312.283ZM199.572 312.891H198.816L197.709 308.923H198.465L199.229 311.839L200.142 308.923H200.812L201.717 311.839L202.489 308.923H203.222L202.107 312.891H201.358L200.469 309.983L199.572 312.891Z" fill="#41475E" fill-opacity="0.54"/>
<path d="M266.637 307.433H267.44L270.481 311.48V307.433H271.253V312.891H270.536L267.409 308.712V312.891H266.637V307.433ZM275.716 312.439C275.487 312.616 275.248 312.748 274.999 312.837C274.749 312.92 274.476 312.962 274.18 312.962C273.889 312.962 273.616 312.91 273.361 312.806C273.106 312.697 272.885 312.551 272.698 312.369C272.511 312.187 272.363 311.971 272.254 311.722C272.15 311.467 272.098 311.194 272.098 310.903C272.098 310.617 272.15 310.35 272.254 310.1C272.358 309.851 272.498 309.635 272.675 309.453C272.852 309.271 273.062 309.128 273.307 309.024C273.551 308.915 273.811 308.86 274.086 308.86C274.357 308.86 274.609 308.915 274.843 309.024C275.082 309.128 275.284 309.274 275.451 309.461C275.622 309.643 275.757 309.861 275.856 310.116C275.955 310.37 276.004 310.643 276.004 310.934V311.16H272.87C272.922 311.488 273.073 311.761 273.322 311.979C273.572 312.192 273.868 312.299 274.211 312.299C274.403 312.299 274.588 312.268 274.765 312.205C274.941 312.143 275.092 312.057 275.217 311.948L275.716 312.439ZM274.071 309.515C273.774 309.515 273.514 309.614 273.291 309.812C273.073 310.009 272.935 310.264 272.878 310.576H275.232C275.175 310.274 275.037 310.022 274.819 309.819C274.606 309.617 274.357 309.515 274.071 309.515ZM277.109 311.909V309.578H276.267V308.923H277.109V307.909L277.881 307.722V308.923H279.051V309.578H277.881V311.73C277.881 311.932 277.925 312.075 278.014 312.159C278.107 312.242 278.258 312.283 278.466 312.283C278.575 312.283 278.671 312.278 278.755 312.268C278.843 312.252 278.936 312.226 279.035 312.19V312.845C278.931 312.881 278.809 312.91 278.669 312.93C278.534 312.951 278.409 312.962 278.295 312.962C277.91 312.962 277.616 312.873 277.413 312.697C277.211 312.515 277.109 312.252 277.109 311.909ZM283.999 312.221C284.311 312.221 284.61 312.159 284.896 312.034C285.182 311.904 285.424 311.722 285.621 311.488L286.159 312.034C285.894 312.325 285.567 312.556 285.177 312.728C284.792 312.894 284.392 312.977 283.976 312.977C283.576 312.977 283.199 312.904 282.845 312.759C282.497 312.613 282.196 312.416 281.941 312.166C281.686 311.912 281.484 311.613 281.333 311.27C281.187 310.921 281.114 310.552 281.114 310.162C281.114 309.767 281.187 309.398 281.333 309.055C281.484 308.712 281.686 308.416 281.941 308.166C282.196 307.912 282.497 307.711 282.845 307.566C283.199 307.42 283.576 307.348 283.976 307.348C284.402 307.348 284.81 307.433 285.2 307.605C285.595 307.771 285.92 308 286.175 308.291L285.629 308.852C285.421 308.613 285.172 308.429 284.881 308.299C284.589 308.169 284.288 308.104 283.976 308.104C283.69 308.104 283.422 308.156 283.173 308.26C282.923 308.364 282.708 308.509 282.526 308.697C282.349 308.878 282.209 309.097 282.105 309.351C282.001 309.601 281.949 309.871 281.949 310.162C281.949 310.454 282.001 310.726 282.105 310.981C282.209 311.231 282.352 311.446 282.534 311.628C282.715 311.81 282.931 311.956 283.181 312.065C283.435 312.169 283.708 312.221 283.999 312.221ZM288.122 312.962C287.691 312.962 287.34 312.85 287.069 312.626C286.799 312.403 286.664 312.112 286.664 311.753C286.664 311.379 286.807 311.085 287.093 310.872C287.379 310.654 287.771 310.544 288.27 310.544C288.463 310.544 288.65 310.565 288.832 310.607C289.014 310.643 289.188 310.695 289.354 310.763V310.342C289.354 310.061 289.271 309.851 289.104 309.71C288.938 309.57 288.699 309.5 288.387 309.5C288.205 309.5 288.015 309.528 287.818 309.585C287.62 309.637 287.399 309.721 287.155 309.835L286.867 309.25C287.163 309.11 287.444 309.008 287.709 308.946C287.974 308.878 288.236 308.845 288.496 308.845C289.011 308.845 289.409 308.969 289.689 309.219C289.975 309.463 290.118 309.812 290.118 310.264V312.891H289.354V312.548C289.177 312.689 288.988 312.793 288.785 312.86C288.582 312.928 288.361 312.962 288.122 312.962ZM287.412 311.737C287.412 311.93 287.493 312.086 287.654 312.205C287.821 312.325 288.036 312.385 288.301 312.385C288.509 312.385 288.702 312.353 288.878 312.291C289.055 312.229 289.214 312.135 289.354 312.01V311.324C289.203 311.241 289.045 311.181 288.878 311.145C288.712 311.103 288.53 311.082 288.333 311.082C288.052 311.082 287.828 311.142 287.662 311.262C287.496 311.381 287.412 311.54 287.412 311.737ZM290.642 312.377L291.063 311.862C291.271 312.023 291.482 312.148 291.695 312.236C291.913 312.32 292.134 312.361 292.358 312.361C292.638 312.361 292.867 312.307 293.044 312.197C293.221 312.088 293.309 311.945 293.309 311.769C293.309 311.628 293.257 311.517 293.153 311.433C293.049 311.35 292.888 311.293 292.67 311.262L291.952 311.16C291.562 311.103 291.266 310.984 291.063 310.802C290.866 310.615 290.767 310.368 290.767 310.061C290.767 309.702 290.91 309.414 291.196 309.196C291.482 308.972 291.856 308.86 292.319 308.86C292.61 308.86 292.885 308.902 293.145 308.985C293.41 309.068 293.668 309.196 293.917 309.367L293.52 309.882C293.301 309.736 293.088 309.632 292.88 309.57C292.677 309.502 292.472 309.468 292.264 309.468C292.025 309.468 291.833 309.518 291.687 309.617C291.542 309.715 291.469 309.845 291.469 310.006C291.469 310.152 291.518 310.264 291.617 310.342C291.721 310.415 291.89 310.469 292.124 310.505L292.841 310.607C293.231 310.664 293.527 310.786 293.73 310.973C293.938 311.16 294.042 311.407 294.042 311.714C294.042 311.891 293.998 312.057 293.909 312.213C293.826 312.364 293.709 312.494 293.559 312.603C293.413 312.712 293.239 312.8 293.036 312.868C292.833 312.93 292.615 312.962 292.381 312.962C292.038 312.962 291.716 312.912 291.414 312.813C291.118 312.715 290.861 312.569 290.642 312.377ZM294.641 312.891V307.433L295.421 307.262V309.32C295.577 309.164 295.754 309.047 295.951 308.969C296.154 308.886 296.375 308.845 296.614 308.845C297.066 308.845 297.438 308.99 297.729 309.281C298.02 309.567 298.165 309.939 298.165 310.396V312.891H297.386V310.529C297.386 310.217 297.295 309.973 297.113 309.796C296.936 309.614 296.7 309.523 296.403 309.523C296.195 309.523 296.006 309.567 295.834 309.656C295.668 309.744 295.53 309.871 295.421 310.038V312.891H294.641ZM298.585 308.923H299.505V308.322C299.505 307.912 299.62 307.597 299.849 307.379C300.082 307.155 300.418 307.043 300.854 307.043C300.958 307.043 301.057 307.051 301.151 307.067C301.244 307.077 301.333 307.093 301.416 307.114V307.792C301.322 307.766 301.239 307.748 301.166 307.737C301.093 307.727 301.013 307.722 300.925 307.722C300.711 307.722 300.55 307.774 300.441 307.878C300.337 307.977 300.285 308.13 300.285 308.338V308.923H301.416V309.578H300.285V312.891H299.505V309.578H298.585V308.923ZM302.792 307.262V312.891H302.012V307.433L302.792 307.262ZM303.531 310.903C303.531 310.617 303.583 310.35 303.687 310.1C303.796 309.845 303.944 309.627 304.131 309.445C304.318 309.258 304.537 309.112 304.786 309.008C305.041 308.899 305.311 308.845 305.597 308.845C305.883 308.845 306.151 308.899 306.4 309.008C306.655 309.112 306.873 309.258 307.055 309.445C307.242 309.627 307.388 309.845 307.492 310.1C307.601 310.35 307.655 310.617 307.655 310.903C307.655 311.194 307.601 311.467 307.492 311.722C307.388 311.971 307.242 312.19 307.055 312.377C306.873 312.559 306.655 312.704 306.4 312.813C306.151 312.917 305.883 312.969 305.597 312.969C305.311 312.969 305.041 312.917 304.786 312.813C304.537 312.704 304.318 312.559 304.131 312.377C303.944 312.19 303.796 311.971 303.687 311.722C303.583 311.467 303.531 311.194 303.531 310.903ZM305.597 312.283C305.956 312.283 306.26 312.151 306.509 311.886C306.764 311.615 306.891 311.288 306.891 310.903C306.891 310.518 306.764 310.194 306.509 309.928C306.26 309.663 305.956 309.531 305.597 309.531C305.238 309.531 304.932 309.663 304.677 309.928C304.422 310.194 304.295 310.518 304.295 310.903C304.295 311.288 304.42 311.615 304.669 311.886C304.924 312.151 305.233 312.283 305.597 312.283ZM309.814 312.891H309.058L307.95 308.923H308.707L309.471 311.839L310.383 308.923H311.054L311.958 311.839L312.73 308.923H313.463L312.348 312.891H311.599L310.711 309.983L309.814 312.891Z" fill="#41475E" fill-opacity="0.54"/>
<path d="M285.357 369.052V363.594H289.381V364.311H286.176V365.949H288.281V366.651H286.176V368.335H289.412V369.052H285.357ZM289.685 369.052L291.229 367.017L289.747 365.083H290.66L291.681 366.448L292.703 365.083H293.584L292.118 367.009L293.685 369.052H292.765L291.673 367.586L290.566 369.052H289.685ZM294.158 370.666V365.083H294.929V365.465C295.091 365.32 295.275 365.211 295.483 365.138C295.691 365.06 295.912 365.021 296.146 365.021C296.427 365.021 296.689 365.076 296.933 365.185C297.178 365.289 297.388 365.432 297.565 365.614C297.747 365.796 297.89 366.011 297.994 366.261C298.098 366.51 298.15 366.778 298.15 367.064C298.15 367.35 298.098 367.62 297.994 367.875C297.89 368.124 297.747 368.34 297.565 368.522C297.388 368.704 297.175 368.849 296.926 368.959C296.676 369.063 296.411 369.115 296.13 369.115C295.912 369.115 295.699 369.081 295.491 369.013C295.288 368.946 295.104 368.849 294.937 368.725V370.666H294.158ZM296.045 365.699C295.821 365.699 295.613 365.741 295.421 365.824C295.228 365.907 295.067 366.024 294.937 366.175V367.968C295.062 368.114 295.221 368.228 295.413 368.311C295.61 368.395 295.821 368.436 296.045 368.436C296.424 368.436 296.741 368.306 296.996 368.046C297.256 367.786 297.386 367.462 297.386 367.072C297.386 366.682 297.256 366.357 296.996 366.097C296.736 365.832 296.419 365.699 296.045 365.699ZM302.348 368.6C302.119 368.777 301.88 368.909 301.63 368.998C301.381 369.081 301.108 369.122 300.812 369.122C300.52 369.122 300.248 369.07 299.993 368.966C299.738 368.857 299.517 368.712 299.33 368.53C299.143 368.348 298.995 368.132 298.886 367.883C298.782 367.628 298.73 367.355 298.73 367.064C298.73 366.778 298.782 366.51 298.886 366.261C298.99 366.011 299.13 365.796 299.307 365.614C299.483 365.432 299.694 365.289 299.938 365.185C300.183 365.076 300.442 365.021 300.718 365.021C300.988 365.021 301.24 365.076 301.474 365.185C301.713 365.289 301.916 365.434 302.083 365.621C302.254 365.803 302.389 366.022 302.488 366.276C302.587 366.531 302.636 366.804 302.636 367.095V367.321H299.502C299.554 367.649 299.704 367.922 299.954 368.14C300.203 368.353 300.5 368.46 300.843 368.46C301.035 368.46 301.22 368.428 301.396 368.366C301.573 368.304 301.724 368.218 301.849 368.109L302.348 368.6ZM300.702 365.676C300.406 365.676 300.146 365.775 299.923 365.972C299.704 366.17 299.567 366.425 299.509 366.736H301.864C301.807 366.435 301.669 366.183 301.451 365.98C301.238 365.777 300.988 365.676 300.702 365.676ZM303.379 369.052V365.083H304.158V365.59C304.278 365.398 304.431 365.252 304.619 365.154C304.806 365.05 305.016 364.998 305.25 364.998C305.333 364.998 305.406 365.003 305.468 365.013C305.531 365.024 305.591 365.039 305.648 365.06V365.762C305.575 365.736 305.5 365.715 305.422 365.699C305.344 365.684 305.266 365.676 305.188 365.676C304.959 365.676 304.754 365.738 304.572 365.863C304.395 365.983 304.257 366.162 304.158 366.401V369.052H303.379ZM306.662 364.444C306.532 364.444 306.42 364.397 306.327 364.304C306.233 364.205 306.186 364.091 306.186 363.961C306.186 363.831 306.233 363.719 306.327 363.625C306.42 363.527 306.532 363.477 306.662 363.477C306.792 363.477 306.904 363.527 306.997 363.625C307.096 363.719 307.146 363.831 307.146 363.961C307.146 364.091 307.096 364.205 306.997 364.304C306.904 364.397 306.792 364.444 306.662 364.444ZM307.052 365.083V369.052H306.272V365.083H307.052ZM311.409 368.6C311.18 368.777 310.941 368.909 310.692 368.998C310.442 369.081 310.169 369.122 309.873 369.122C309.582 369.122 309.309 369.07 309.054 368.966C308.799 368.857 308.578 368.712 308.391 368.53C308.204 368.348 308.056 368.132 307.947 367.883C307.843 367.628 307.791 367.355 307.791 367.064C307.791 366.778 307.843 366.51 307.947 366.261C308.051 366.011 308.191 365.796 308.368 365.614C308.545 365.432 308.755 365.289 309 365.185C309.244 365.076 309.504 365.021 309.779 365.021C310.05 365.021 310.302 365.076 310.536 365.185C310.775 365.289 310.977 365.434 311.144 365.621C311.315 365.803 311.45 366.022 311.549 366.276C311.648 366.531 311.697 366.804 311.697 367.095V367.321H308.563C308.615 367.649 308.766 367.922 309.015 368.14C309.265 368.353 309.561 368.46 309.904 368.46C310.096 368.46 310.281 368.428 310.458 368.366C310.634 368.304 310.785 368.218 310.91 368.109L311.409 368.6ZM309.764 365.676C309.467 365.676 309.207 365.775 308.984 365.972C308.766 366.17 308.628 366.425 308.571 366.736H310.925C310.868 366.435 310.731 366.183 310.512 365.98C310.299 365.777 310.05 365.676 309.764 365.676ZM312.44 369.052V365.083H313.22V365.481C313.376 365.325 313.552 365.208 313.75 365.13C313.953 365.047 314.174 365.005 314.413 365.005C314.865 365.005 315.237 365.151 315.528 365.442C315.819 365.728 315.964 366.1 315.964 366.557V369.052H315.185V366.69C315.185 366.378 315.094 366.133 314.912 365.957C314.735 365.775 314.498 365.684 314.202 365.684C313.994 365.684 313.805 365.728 313.633 365.816C313.467 365.905 313.329 366.032 313.22 366.198V369.052H312.44ZM318.759 368.436C318.956 368.436 319.143 368.397 319.32 368.319C319.497 368.236 319.666 368.114 319.827 367.953L320.295 368.46C320.087 368.668 319.848 368.831 319.578 368.951C319.307 369.065 319.024 369.122 318.728 369.122C318.442 369.122 318.174 369.07 317.924 368.966C317.675 368.857 317.459 368.712 317.277 368.53C317.095 368.348 316.95 368.132 316.841 367.883C316.737 367.628 316.685 367.355 316.685 367.064C316.685 366.778 316.737 366.51 316.841 366.261C316.95 366.006 317.095 365.788 317.277 365.606C317.459 365.419 317.675 365.273 317.924 365.169C318.174 365.06 318.442 365.005 318.728 365.005C319.024 365.005 319.312 365.065 319.593 365.185C319.874 365.299 320.118 365.46 320.326 365.668L319.835 366.198C319.684 366.037 319.515 365.915 319.328 365.832C319.141 365.744 318.946 365.699 318.743 365.699C318.385 365.699 318.08 365.832 317.831 366.097C317.581 366.362 317.457 366.684 317.457 367.064C317.457 367.454 317.581 367.781 317.831 368.046C318.086 368.306 318.395 368.436 318.759 368.436ZM324.217 368.6C323.988 368.777 323.749 368.909 323.499 368.998C323.25 369.081 322.977 369.122 322.68 369.122C322.389 369.122 322.116 369.07 321.862 368.966C321.607 368.857 321.386 368.712 321.199 368.53C321.012 368.348 320.864 368.132 320.755 367.883C320.651 367.628 320.599 367.355 320.599 367.064C320.599 366.778 320.651 366.51 320.755 366.261C320.858 366.011 320.999 365.796 321.176 365.614C321.352 365.432 321.563 365.289 321.807 365.185C322.051 365.076 322.311 365.021 322.587 365.021C322.857 365.021 323.109 365.076 323.343 365.185C323.582 365.289 323.785 365.434 323.951 365.621C324.123 365.803 324.258 366.022 324.357 366.276C324.456 366.531 324.505 366.804 324.505 367.095V367.321H321.371C321.422 367.649 321.573 367.922 321.823 368.14C322.072 368.353 322.369 368.46 322.712 368.46C322.904 368.46 323.089 368.428 323.265 368.366C323.442 368.304 323.593 368.218 323.717 368.109L324.217 368.6ZM322.571 365.676C322.275 365.676 322.015 365.775 321.792 365.972C321.573 366.17 321.435 366.425 321.378 366.736H323.733C323.676 366.435 323.538 366.183 323.32 365.98C323.107 365.777 322.857 365.676 322.571 365.676Z" fill="#41475E" fill-opacity="0.54"/>
<circle cx="219.283" cy="365.252" r="3.12004" fill="#5B78FF"/>
<circle cx="275.444" cy="365.252" r="3.12004" fill="#C2CFE0"/>
</g>
<defs>
<filter id="filter0_d_5_2858" x="126.05" y="0.825989" width="271.95" height="359.934" filterUnits="userSpaceOnUse" color-interpolation-filters="sRGB">
<feFlood flood-opacity="0" result="BackgroundImageFix"/>
<feColorMatrix in="SourceAlpha" type="matrix" values="0 0 0 0 0 0 0 0 0 0 0 0 0 0 0 0 0 0 127 0" result="hardAlpha"/>
<feOffset dy="4"/>
<feGaussianBlur stdDeviation="2"/>
<feComposite in2="hardAlpha" operator="out"/>
<feColorMatrix type="matrix" values="0 0 0 0 0 0 0 0 0 0 0 0 0 0 0 0 0 0 0.3 0"/>
<feBlend mode="normal" in2="BackgroundImageFix" result="effect1_dropShadow_5_2858"/>
<feBlend mode="normal" in="SourceGraphic" in2="effect1_dropShadow_5_2858" result="shape"/>
</filter>
<filter id="filter1_d_5_2858" x="-6.10352e-05" y="283.091" width="355.365" height="218.083" filterUnits="userSpaceOnUse" color-interpolation-filters="sRGB">
<feFlood flood-opacity="0" result="BackgroundImageFix"/>
<feColorMatrix in="SourceAlpha" type="matrix" values="0 0 0 0 0 0 0 0 0 0 0 0 0 0 0 0 0 0 127 0" result="hardAlpha"/>
<feOffset dy="4"/>
<feGaussianBlur stdDeviation="2"/>
<feComposite in2="hardAlpha" operator="out"/>
<feColorMatrix type="matrix" values="0 0 0 0 0 0 0 0 0 0 0 0 0 0 0 0 0 0 0.3 0"/>
<feBlend mode="normal" in2="BackgroundImageFix" result="effect1_dropShadow_5_2858"/>
<feBlend mode="normal" in="SourceGraphic" in2="effect1_dropShadow_5_2858" result="shape"/>
</filter>
</defs>
</svg>
