<svg width="24" height="24" viewBox="0 0 24 24" fill="none" xmlns="http://www.w3.org/2000/svg">
<rect width="24" height="24" fill="#E5E5E5"/>
<rect width="1440" height="900" transform="translate(-114 -371)" fill="white"/>
<rect x="-114" y="-371" width="671" height="900" fill="white"/>
<g filter="url(#filter0_d_0_1)">
<rect x="-16" y="-12" width="475" height="48" rx="4" fill="white"/>
<path fill-rule="evenodd" clip-rule="evenodd" d="M2 6C2 4.89543 2.89543 4 4 4H20C21.1046 4 22 4.89543 22 6V18C22 19.1046 21.1046 20 20 20H4C2.89543 20 2 19.1046 2 18V6ZM20 7.8685V18H4V7.86851L11.4453 12.832C11.7812 13.056 12.2188 13.056 12.5547 12.832L20 7.8685ZM19.1972 6H4.80279L12 10.7981L19.1972 6Z" fill="#828292"/>
<rect x="-16" y="-12" width="475" height="48" rx="4" stroke="#5B78FF"/>
</g>
<defs>
<filter id="filter0_d_0_1" x="-20.5" y="-15.5" width="484" height="57" filterUnits="userSpaceOnUse" color-interpolation-filters="sRGB">
<feFlood flood-opacity="0" result="BackgroundImageFix"/>
<feColorMatrix in="SourceAlpha" type="matrix" values="0 0 0 0 0 0 0 0 0 0 0 0 0 0 0 0 0 0 127 0" result="hardAlpha"/>
<feOffset dy="1"/>
<feGaussianBlur stdDeviation="2"/>
<feComposite in2="hardAlpha" operator="out"/>
<feColorMatrix type="matrix" values="0 0 0 0 0 0 0 0 0 0 0 0 0 0 0 0 0 0 0.1 0"/>
<feBlend mode="normal" in2="BackgroundImageFix" result="effect1_dropShadow_0_1"/>
<feBlend mode="normal" in="SourceGraphic" in2="effect1_dropShadow_0_1" result="shape"/>
</filter>
</defs>
</svg>
